<svg xmlns="http://www.w3.org/2000/svg" viewBox="0 0 720 320" preserveAspectRatio="none">
  <defs>
    <linearGradient id="strand" x1="0" x2="1"><stop stop-color="#00b7c7" stop-opacity="0"/><stop offset=".16" stop-color="#00b7c7" stop-opacity=".15"/><stop offset=".43" stop-color="#88fff4" stop-opacity=".36"/><stop offset=".7" stop-color="#00cddd" stop-opacity=".2"/><stop offset="1" stop-color="#00b7c7" stop-opacity="0"/></linearGradient>
    <linearGradient id="fine" x1="0" x2="1"><stop stop-color="#00b7c7" stop-opacity="0"/><stop offset=".34" stop-color="#48d9df" stop-opacity=".2"/><stop offset=".61" stop-color="#b1d5c9" stop-opacity=".12"/><stop offset="1" stop-color="#00b7c7" stop-opacity="0"/></linearGradient>
    <pattern id="matrix" width="11" height="11" patternUnits="userSpaceOnUse"><circle cx="2" cy="2" r="1.05" fill="#00cddd"/><circle cx="7" cy="7" r=".58" fill="#b1d5c9"/></pattern>
    <radialGradient id="flare"><stop stop-color="#d9ffff" stop-opacity=".96"/><stop offset=".11" stop-color="#00d8e8" stop-opacity=".42"/><stop offset="1" stop-color="#00b7c7" stop-opacity="0"/></radialGradient>
  </defs>
  <g fill="url(#matrix)">
    <path opacity=".13" d="M32 140c45-25 116-34 170-2v148H21V171c2-11 5-21 11-31Z"/>
    <path opacity=".11" d="M260 92c42-21 100-5 132 25v158c-41 19-95 2-132-30V92Z"/>
    <path opacity=".1" d="M520 139c65-31 150-11 190 27v118c-56 13-126-5-190-39V139Z"/>
    <path opacity=".07" d="M114 70h68v45h-68zM438 82h57v75h-57z"/>
  </g>
  <g fill="none" stroke-linecap="round">
    <g stroke="url(#fine)" stroke-width=".72"><path d="M-36 276C46 215 112 283 191 258s103-73 178-72 122 74 183 59 112-43 204 8"/><path d="M-36 284C48 229 119 294 198 268s105-75 180-72 121 72 183 58 111-41 195 9"/><path d="M-36 292C51 242 126 304 205 278s106-77 182-72 120 70 184 57 110-39 187 11"/><path d="M-36 301C55 254 133 313 213 288s108-79 184-73 119 68 185 56 108-37 178 12"/><path d="M-36 310C60 266 141 322 222 298s108-82 186-74 118 66 185 55 106-34 169 14"/></g>
    <g stroke="url(#strand)" stroke-width="1.16"><path d="M-36 262C58 154 139 300 270 211S410 133 506 186s145 96 254 1"/><path d="M-36 253C49 137 130 286 259 197S399 115 496 173s153 107 264-10"/><path d="M-36 244C39 120 120 273 248 183S389 98 486 160s161 118 274-21"/><path d="M-36 235C28 103 109 260 236 170S378 81 475 148s171 129 285-34"/><path d="M-36 226C16 85 97 247 224 157S367 65 464 136s181 140 296-48"/><path d="M-36 217C5 68 85 234 212 144S355 50 452 124s192 152 308-61"/><path d="M-36 270C69 171 150 309 281 221S422 146 518 197s132 85 242 14"/></g>
  </g>
  <g fill="url(#flare)"><circle cx="156" cy="270" r="26"/><circle cx="351" cy="189" r="18"/><circle cx="523" cy="218" r="20"/><circle cx="637" cy="246" r="15"/></g>
  <g fill="#8cfff6"><circle cx="156" cy="270" r="1.7"/><circle cx="351" cy="189" r="1.35"/><circle cx="523" cy="218" r="1.45"/><circle cx="637" cy="246" r="1.2"/></g>
</svg>
